<?xml version="1.0" standalone="no"?>
<!DOCTYPE svg PUBLIC "-//W3C//DTD SVG 1.1//EN" "http://www.w3.org/Graphics/SVG/1.1/DTD/svg11.dtd">
<svg width="570px" height="290px"
     viewBox="0 0 570 290" preserveAspectRatio="none"
     xmlns="http://www.w3.org/2000/svg" version="1.1"
     xmlns:xlink="http://www.w3.org/1999/xlink">
<style type="text/css">
text {
    font-family: Verdana, Tahoma, sans-serif;
    font-size: 12pt;
    fill: black;
    stroke: none;
}
/* As at 20080209, Wikipedia's SVG rasteriser couldn't make use of these styles. Leave them in in case it improves. */
#percentage_numbers text {
    text-anchor: end;
}
#x_axis_numbers text {
    text-anchor: middle;
}
</style>
<desc>Usage share of Netscape Navigator</desc>
<defs>
    <!-- The lines in the graph are scaled significantly. Make sure the stroke width is set appropriately. -->
    <line id="horizontal_line" x1="1994" x2="2007" y1="0" y2="0" stroke-width="0.3" />
    <line id="vertical_line" x1="0" x2="0" y1="1.5" y2="-1.5" stroke-width="0.02" />
</defs>
<!--
    ORDER OF TRANSFORMATIONS:
    (1)    Shift origin from (x, y) to (0, 0) (e.g., from [1994, 0] to [0, 0])
    (2)    Scale as appropriate
    (3)    Shift back to viewport's origin
    (4)    Shift away from edge as desired

    CALCULATIONS:
    Horizontal  =    Width/Range
                =    (570-50)/(2007-1994)
                ~    40
    Vertical    =    -Height/Range
                =    -(290-20)/(100 - 0)
                ~    -2.5
-->
<g transform="translate(50 -20)">
    <g transform="translate(0 290) scale(40 -2.5) translate(-1994 0)">
        <!-- Plot -->
        <path fill="#555"
              d="M 1994    0
                 L 1994.5  0
                 L 1995   33.43
                 L 1995.5 70.77
                 L 1996   77.87
                 L 1996.5 73.79
                 L 1997   68.08
                 L 1997.5 61.90
                 L 1998   59.88
                 L 1998.5 56.05
                 L 1999   41.62
                 L 1999.5 25.98
                 L 2000   19.84
                 L 2000.5 14.86
                 L 2001   11.80
                 L 2001.5  9.55
                 L 2002    4.94
                 L 2002.5  2.70
                 L 2003    1.55
                 L 2003.5  0.96
                 L 2004    0.54
                 L 2004.5  0.26
                 L 2005    0.14
                 L 2005.5  0.08
                 L 2006    0.06
                 L 2006.5  0.06
                 L 2007    0.06
                 V 0 z" />
        <!-- X-axis -->
        <use xlink:href="#horizontal_line" x="0" y="0" stroke="black" />
        <!-- Horizontal gridlines -->
        <g stroke="#ccc">
            <use xlink:href="#horizontal_line" x="0" y="20" />
            <use xlink:href="#horizontal_line" x="0" y="40" />
            <use xlink:href="#horizontal_line" x="0" y="60" />
            <use xlink:href="#horizontal_line" x="0" y="80" />
            <use xlink:href="#horizontal_line" x="0" y="100" />
        </g>
        <!-- Vertical ticks -->
        <g stroke="black">
            <use xlink:href="#vertical_line" x="1994" y="0" />
            <use xlink:href="#vertical_line" x="1995" y="0" />
            <use xlink:href="#vertical_line" x="1996" y="0" />
            <use xlink:href="#vertical_line" x="1997" y="0" />
            <use xlink:href="#vertical_line" x="1998" y="0" />
            <use xlink:href="#vertical_line" x="1999" y="0" />
            <use xlink:href="#vertical_line" x="2000" y="0" />
            <use xlink:href="#vertical_line" x="2001" y="0" />
            <use xlink:href="#vertical_line" x="2002" y="0" />
            <use xlink:href="#vertical_line" x="2003" y="0" />
            <use xlink:href="#vertical_line" x="2004" y="0" />
            <use xlink:href="#vertical_line" x="2005" y="0" />
            <use xlink:href="#vertical_line" x="2006" y="0" />
            <use xlink:href="#vertical_line" x="2007" y="0" />
        </g>
    </g>
    <!-- Text can't be scaled or it goes strange. Its location must be calculated directly. -->
    <g id="percentage_numbers" transform="translate(-3 6)" style="text-anchor: end;">
        <text x="0" y="290">0%</text>
        <text x="0" y="240">20%</text>
        <text x="0" y="190">40%</text>
        <text x="0" y="140">60%</text>
        <text x="0" y="90">80%</text>
        <text x="0" y="40">100%</text>
    </g>
    <g id="x_axis_numbers" transform="translate(0 20)" style="text-anchor: middle;">
        <text x="0" y="290">1994</text>
        <text x="80" y="290">1996</text>
        <text x="160" y="290">1998</text>
        <text x="240" y="290">2000</text>
        <text x="320" y="290">2002</text>
        <text x="400" y="290">2004</text>
        <text x="480" y="290">2006</text>
    </g>
</g>
</svg>
