<?xml version="1.0" encoding="UTF-8" standalone="no"?>
<svg
   xmlns:dc="http://purl.org/dc/elements/1.1/"
   xmlns:cc="http://creativecommons.org/ns#"
   xmlns:rdf="http://www.w3.org/1999/02/22-rdf-syntax-ns#"
   xmlns:svg="http://www.w3.org/2000/svg"
   xmlns="http://www.w3.org/2000/svg"
   xmlns:sodipodi="http://sodipodi.sourceforge.net/DTD/sodipodi-0.dtd"
   xmlns:inkscape="http://www.inkscape.org/namespaces/inkscape"
   width="400"
   height="400"
   viewBox="0 0 105.83333 105.83334"
   version="1.1"
   id="svg8"
   inkscape:version="1.0.2 (e86c870879, 2021-01-15)"
   sodipodi:docname="splash.svg">
  <defs
     id="defs2" />
  <sodipodi:namedview
     id="base"
     pagecolor="#ffffff"
     bordercolor="#666666"
     borderopacity="1.0"
     inkscape:pageopacity="0"
     inkscape:pageshadow="2"
     inkscape:zoom="0.65869564"
     inkscape:cx="295.7865"
     inkscape:cy="448.72745"
     inkscape:document-units="mm"
     inkscape:current-layer="layer1"
     inkscape:document-rotation="0"
     showgrid="false"
     units="px"
     inkscape:window-width="1920"
     inkscape:window-height="1043"
     inkscape:window-x="0"
     inkscape:window-y="0"
     inkscape:window-maximized="1" />
  <metadata
     id="metadata5">
    <rdf:RDF>
      <cc:Work
         rdf:about="">
        <dc:format>image/svg+xml</dc:format>
        <dc:type
           rdf:resource="http://purl.org/dc/dcmitype/StillImage" />
        <dc:title></dc:title>
      </cc:Work>
    </rdf:RDF>
  </metadata>
  <g
     inkscape:label="Layer 1"
     inkscape:groupmode="layer"
     id="layer1">
    <g
       id="g39"
       transform="matrix(0.49999999,0,0,0.49999999,-1.2715658e-6,-1.2715658e-6)">
      <rect
         style="fill:#00cc00;stroke-width:1.17589;stroke-linecap:round;stroke-linejoin:bevel"
         id="rect168"
         width="211.66667"
         height="211.66667"
         x="-2.5431316e-06"
         y="-2.5431316e-06" />
      <g
         id="g69"
         transform="matrix(2.5058104,0,0,2.5058104,15.624159,-9.890122)">
        <g
           id="color">
          <path
             fill="#fcea2b"
             d="M 36,13 C 23.2975,13 13,23.2975 13,36 13,48.7025 23.2975,59 36,59 48.7025,59 59,48.7025 59,36 58.9857,23.3034 48.6966,13.0143 36,13 Z"
             id="path28" />
          <path
             fill="#ffffff"
             d="m 44.5,49.2708 h -17 c -2.2064,-0.0065 -3.9935,-1.7936 -4,-4 v 0 c 0.0065,-2.2064 1.7936,-3.9935 4,-4 h 17 c 2.2064,0.0065 3.9935,1.7936 4,4 v 0 c -0.0065,2.2064 -1.7936,3.9935 -4,4 z"
             id="path30" />
        </g>
        <g
           id="line">
          <line
             x1="28"
             x2="28"
             y1="41.770802"
             y2="48.770802"
             fill="none"
             stroke="#000000"
             stroke-linecap="round"
             stroke-linejoin="round"
             stroke-width="2"
             id="line33" />
          <line
             x1="33"
             x2="33"
             y1="41.770802"
             y2="48.770802"
             fill="none"
             stroke="#000000"
             stroke-linecap="round"
             stroke-linejoin="round"
             stroke-width="2"
             id="line35" />
          <line
             x1="38"
             x2="38"
             y1="41.770802"
             y2="48.770802"
             fill="none"
             stroke="#000000"
             stroke-linecap="round"
             stroke-linejoin="round"
             stroke-width="2"
             id="line37" />
          <line
             x1="43"
             x2="43"
             y1="41.770802"
             y2="48.770802"
             fill="none"
             stroke="#000000"
             stroke-linecap="round"
             stroke-linejoin="round"
             stroke-width="2"
             id="line39" />
          <circle
             cx="36"
             cy="36"
             r="23"
             fill="none"
             stroke="#000000"
             stroke-miterlimit="10"
             stroke-width="2"
             id="circle41" />
          <path
             fill="none"
             stroke="#000000"
             stroke-miterlimit="2"
             stroke-width="2"
             d="m 44.5,49.2708 h -17 c -2.2064,-0.0065 -3.9935,-1.7936 -4,-4 v 0 c 0.0065,-2.2064 1.7936,-3.9935 4,-4 h 17 c 2.2064,0.0065 3.9935,1.7936 4,4 v 0 c -0.0065,2.2064 -1.7936,3.9935 -4,4 z"
             id="path43" />
          <path
             d="m 30,31 c 0,1.6568 -1.3448,3 -3,3 -1.6553,0 -3,-1.3433 -3,-3 0,-1.6552 1.3447,-3 3,-3 1.6552,0 3,1.3448 3,3"
             id="path45" />
          <path
             d="m 48,31 c 0,1.6568 -1.3447,3 -3,3 -1.6553,0 -3,-1.3433 -3,-3 0,-1.6552 1.3447,-3 3,-3 1.6553,0 3,1.3448 3,3"
             id="path47" />
        </g>
      </g>
      <text
         xml:space="preserve"
         style="font-style:normal;font-weight:normal;font-size:48.3349px;line-height:1.25;font-family:sans-serif;letter-spacing:0px;word-spacing:0px;fill:#000000;fill-opacity:1;stroke:none;stroke-width:1.20837"
         x="19.68959"
         y="188.50595"
         id="text166"><tspan
           sodipodi:role="line"
           id="tspan164"
           x="19.68959"
           y="188.50595"
           style="font-style:normal;font-variant:normal;font-weight:normal;font-stretch:normal;font-family:BrickShapers;-inkscape-font-specification:BrickShapers;fill:#000000;stroke-width:1.20837">WHAT NOW?</tspan></text>
    </g>
  </g>
</svg>
