<?xml version="1.0" encoding="UTF-8"?>
<!DOCTYPE svg PUBLIC "-//W3C//DTD SVG 1.1//EN" "http://www.w3.org/Graphics/SVG/1.1/DTD/svg11.dtd">
<!-- Creator: CorelDRAW -->
<svg xmlns="http://www.w3.org/2000/svg" xml:space="preserve" width="297mm" height="210mm" style="shape-rendering:geometricPrecision; text-rendering:geometricPrecision; image-rendering:optimizeQuality; fill-rule:evenodd; clip-rule:evenodd"
viewBox="0 0 297 210">
 <defs>
  <style type="text/css">
   <![CDATA[
    .str2 {stroke:black;stroke-width:0.0762}
    .str1 {stroke:black;stroke-width:1.4111}
    .str0 {stroke:#CCCCCC;stroke-width:1.4111}
    .str4 {stroke:black;stroke-width:2.032;stroke-linejoin:round}
    .str3 {stroke:black;stroke-width:2.794;stroke-linejoin:round}
    .fil5 {fill:none}
    .fil3 {fill:black}
    .fil7 {fill:#00CCFF}
    .fil8 {fill:#99FFFF}
    .fil2 {fill:#FF99CC}
    .fil6 {fill:#FFCCCC}
    .fil4 {fill:yellow}
    .fil0 {fill:white}
    .fil1 {fill:black;fill-rule:nonzero}
   ]]>
  </style>
 </defs>
 <g id="Camada_x0020_1">
  <metadata id="CorelCorpID_0Corel-Layer"/>
  <polygon class="fil0 str0" points="35.1925,116.888 39.279,123.947 51.5385,113.545 58.9685,117.26 57.111,122.461 67.1415,129.148 72.714,123.947 85.345,127.29 91.289,121.718 110.607,123.947 121.009,121.718 134.383,124.318 146.643,121.346 157.045,125.433 177.849,125.061 176.734,116.145 187.136,125.061 196.795,122.832 206.083,131.376 224.286,123.575 231.716,111.316 216.113,114.287 221.314,99.799 219.085,81.224 209.426,77.509 209.798,68.593 198.281,74.537 191.594,74.1655 180.077,70.079 179.706,82.71 173.019,79.3665 159.274,77.8805 150.729,81.5955 146.643,84.939 142.556,76.766 136.241,78.252 133.268,84.196 125.839,79.3665 127.696,73.4225 121.009,73.4225 116.551,65.621 109.493,71.565 101.32,75.28 102.434,80.481 92.775,79.738 92.4035,86.7965 80.144,78.6235 60.4545,80.8525 55.2535,87.5395 53.396,78.252 45.5945,80.1095 42.994,107.601 "/>
  <g>
   <path class="fil1" d="M204.41 88.6052l-0.484 -0.8612 0 -11.504 2.0314 0 0 11.504 -1.5474 0.8612zm-0.484 -0.8612l2.0314 0 -0.0013 0.0523 -0.0039 0.0516 -0.0065 0.0508 -0.0089 0.0501 -0.0114 0.0491 -0.0137 0.0482 -0.0159 0.0472 -0.0182 0.0462 -0.0204 0.045 -0.0224 0.0438 -0.0245 0.0425 -0.0264 0.0412 -0.0283 0.0399 -0.0302 0.0384 -0.0319 0.0368 -0.0336 0.0353 -0.0353 0.0337 -0.0368 0.0319 -0.0384 0.0302 -0.0398 0.0283 -0.0412 0.0264 -0.0426 0.0245 -0.0438 0.0224 -0.045 0.0204 -0.0461 0.0181 -0.0472 0.016 -0.0482 0.0137 -0.0491 0.0114 -0.05 0.0089 -0.0509 0.0065 -0.0515 0.0039 -0.0523 0.0013 -0.0523 -0.0013 -0.0515 -0.0039 -0.0509 -0.0065 -0.05 -0.0089 -0.0491 -0.0114 -0.0482 -0.0137 -0.0472 -0.016 -0.0461 -0.0181 -0.045 -0.0204 -0.0438 -0.0224 -0.0426 -0.0245 -0.0412 -0.0264 -0.0398 -0.0283 -0.0384 -0.0302 -0.0368 -0.0319 -0.0353 -0.0337 -0.0336 -0.0353 -0.0319 -0.0368 -0.0302 -0.0384 -0.0283 -0.0399 -0.0264 -0.0412 -0.0245 -0.0425 -0.0224 -0.0438 -0.0204 -0.045 -0.0182 -0.0462 -0.0159 -0.0472 -0.0137 -0.0482 -0.0114 -0.0491 -0.0089 -0.0501 -0.0065 -0.0508 -0.0039 -0.0516 -0.0013 -0.0523zm-8.7907 -6.6132l1.0634 0 9.2747 5.752 -1.0634 1.7224 -9.2747 -5.752 0 -1.7224zm1.0634 0l-1.0634 1.7224 -0.0436 -0.0285 -0.0417 -0.0303 -0.0397 -0.0321 -0.0377 -0.0338 -0.0357 -0.0353 -0.0337 -0.0369 -0.0317 -0.0382 -0.0295 -0.0396 -0.0275 -0.0408 -0.0254 -0.0419 -0.0233 -0.043 -0.0211 -0.044 -0.0189 -0.0449 -0.0167 -0.0456 -0.0146 -0.0464 -0.0123 -0.047 -0.01 -0.0475 -0.0078 -0.048 -0.0054 -0.0483 -0.0032 -0.0486 -0.0008 -0.0488 0.0015 -0.0488 0.0039 -0.0489 0.0063 -0.0488 0.0088 -0.0486 0.0111 -0.0484 0.0136 -0.048 0.0162 -0.0476 0.0186 -0.0471 0.0211 -0.0465 0.0237 -0.0458 0.0262 -0.045 0.0285 -0.0436 0.0303 -0.0417 0.0321 -0.0397 0.0337 -0.0377 0.0354 -0.0358 0.0368 -0.0337 0.0382 -0.0316 0.0396 -0.0296 0.0408 -0.0275 0.0419 -0.0254 0.043 -0.0233 0.044 -0.0211 0.0449 -0.0189 0.0456 -0.0168 0.0464 -0.0145 0.0469 -0.0123 0.0475 -0.01 0.048 -0.0078 0.0483 -0.0055 0.0486 -0.0031 0.0488 -0.0009 0.0488 0.0016 0.0489 0.0039 0.0488 0.0063 0.0486 0.0087 0.0484 0.0112 0.048 0.0136 0.0476 0.0161 0.0471 0.0186 0.0464 0.0212 0.0458 0.0237 0.045 0.0262zm9.7587 -4.8908l-0.484 0.8612 -9.2747 5.752 -1.0634 -1.7224 9.2747 -5.752 1.5474 0.8612zm-0.484 0.8612l-1.0634 -1.7224 0.045 -0.0262 0.0458 -0.0237 0.0464 -0.0212 0.0471 -0.0186 0.0476 -0.0161 0.048 -0.0136 0.0484 -0.0112 0.0486 -0.0087 0.0488 -0.0063 0.0489 -0.0039 0.0488 -0.0016 0.0488 0.0009 0.0486 0.0031 0.0483 0.0055 0.048 0.0078 0.0475 0.01 0.0469 0.0123 0.0464 0.0145 0.0456 0.0168 0.0449 0.0189 0.044 0.0211 0.043 0.0233 0.0419 0.0254 0.0408 0.0275 0.0396 0.0296 0.0382 0.0316 0.0368 0.0337 0.0354 0.0358 0.0337 0.0377 0.0321 0.0397 0.0303 0.0417 0.0285 0.0436 0.0262 0.045 0.0237 0.0458 0.0211 0.0465 0.0186 0.0471 0.0162 0.0476 0.0136 0.048 0.0111 0.0484 0.0088 0.0486 0.0063 0.0488 0.0039 0.0489 0.0015 0.0488 -0.0008 0.0488 -0.0032 0.0486 -0.0054 0.0483 -0.0078 0.048 -0.01 0.0475 -0.0123 0.047 -0.0146 0.0464 -0.0167 0.0456 -0.0189 0.0449 -0.0211 0.044 -0.0233 0.043 -0.0254 0.0419 -0.0275 0.0408 -0.0295 0.0396 -0.0317 0.0382 -0.0337 0.0369 -0.0357 0.0353 -0.0377 0.0338 -0.0397 0.0321 -0.0417 0.0303 -0.0436 0.0285z"/>
   <polygon class="fil2" points="204.942,76.24 204.942,87.744 195.667,81.992 "/>
  </g>
  <path class="fil3" d="M194.156 83.0705c33.0233,-10.27 19.6603,21.6174 17.256,29.8385 -2.4043,8.2211 8.0733,4.2113 14.7395,2.157 -10.4886,10.9336 -20.511,15.9171 -29.1195,1.438 0.2397,-11.504 -3.1156,-21.9295 -2.876,-33.4335z"/>
  <circle class="fil4" cx="73.7562" cy="100.147" r="17.0762"/>
  <circle class="fil4" cx="194.368" cy="100.326" r="17.2559"/>
  <path class="fil1" d="M39.0137 119.745l0 -3.2578c3.0114,-0.6038 5.3237,-2.201 6.9367,-4.7992 1.613,-2.5904 2.4235,-5.9912 2.4235,-10.2184l0 -18.1563 3.2816 0 0 18.1086c0,5.1728 -1.0647,9.2967 -3.2022,12.3876 -2.1295,3.0909 -5.276,5.0694 -9.4396,5.9355z"/>
  <path class="fil1" d="M58.8226 101.239c0,4.394 1.4462,8.0809 4.3305,11.0685 2.8844,2.9877 6.4362,4.4815 10.6395,4.4815 4.1875,0 7.7154,-1.4938 10.5759,-4.4815 2.8685,-2.9876 4.2987,-6.6745 4.2987,-11.0685 0,-4.3782 -1.454,-8.0651 -4.3622,-11.0607 -2.9162,-2.9955 -6.46,-4.4894 -10.6554,-4.4894 -4.2034,0 -7.7234,1.4859 -10.568,4.4656 -2.8367,2.9797 -4.259,6.6745 -4.259,11.0845zm-3.3054 0c0,-2.2169 0.3416,-4.3305 1.025,-6.3329 0.6833,-2.0023 1.6924,-3.8299 3.0273,-5.4906 1.7402,-2.1612 3.814,-3.814 6.2216,-4.9582 2.4156,-1.1521 5.0377,-1.7242 7.8585,-1.7242 2.1454,0 4.2033,0.3496 6.1898,1.0568 1.9865,0.7072 3.7981,1.7481 5.427,3.1068 2.1613,1.756 3.8061,3.8617 4.9344,6.3249 1.1362,2.4553 1.7004,5.133 1.7004,8.0174 0,2.2327 -0.3417,4.3543 -1.033,6.3646 -0.6912,2.0103 -1.7004,3.8299 -3.0194,5.4588 -1.764,2.1772 -3.8458,3.8299 -6.2375,4.9741 -2.3917,1.1362 -4.982,1.7083 -7.771,1.7083 -2.4871,0 -4.847,-0.4688 -7.0877,-1.3984 -2.2487,-0.9297 -4.2193,-2.2646 -5.9276,-4.0047 -1.7402,-1.7322 -3.0592,-3.7107 -3.957,-5.9356 -0.8979,-2.2169 -1.3508,-4.6086 -1.3508,-7.1671z"/>
  <polygon class="fil1" points="96.0887,119.165 96.0887,83.3131 99.418,83.3131 99.418,116.066 109.334,116.066 109.334,119.165 "/>
  <polygon class="fil1" points="112.433,119.165 112.433,83.3131 115.763,83.3131 115.763,119.165 "/>
  <path class="fil1" d="M121.587 119.165l0 -36.4317c4.251,2.05 7.8266,4.688 10.711,7.9299 2.8923,3.234 4.9502,6.8811 6.1739,10.9494l-0.4211 -18.2993 3.2339 0 0 35.8517 -3.2339 0c0.0158,-0.294 0.0238,-0.6118 0.0317,-0.9535 0.008,-0.3417 0.0159,-0.8502 0.0159,-1.5177 0,-6.1898 -1.1124,-11.6406 -3.3293,-16.3605 -2.2248,-4.7198 -5.5382,-8.6609 -9.9482,-11.8313l0 30.663 -3.2339 0z"/>
  <path class="fil1" d="M171.503 101.056l0 16.9644c-1.3031,0.58 -2.5903,1.0091 -3.8537,1.2952 -1.2634,0.286 -2.5506,0.429 -3.8538,0.429 -5.1648,0 -9.4953,-1.7798 -12.9914,-5.3316 -3.4883,-3.5518 -5.2363,-7.9459 -5.2363,-13.1742 0,-5.2602 1.748,-9.6622 5.2363,-13.1981 3.4961,-3.5359 7.8743,-5.3078 13.1345,-5.3078 1.6289,0 3.1783,0.1986 4.6562,0.6039 1.47,0.4052 2.9877,1.0488 4.5371,1.9308l0 3.7743c-1.5335,-1.1919 -3.0433,-2.05 -4.5291,-2.5745 -1.478,-0.5165 -3.1704,-0.7787 -5.0615,-0.7787 -4.116,0 -7.5883,1.4939 -10.417,4.4894 -2.8367,2.9956 -4.2511,6.6825 -4.2511,11.0607 0,4.4576 1.4462,8.1683 4.3305,11.14 2.8844,2.9718 6.5315,4.4577 10.9256,4.4577 0.5085,0 1.0965,-0.0557 1.756,-0.1748 0.6595,-0.1192 1.47,-0.302 2.4314,-0.5483l0 -15.0574 3.1863 0z"/>
  <path class="fil1" d="M179.576 101.239c0,4.394 1.4462,8.0809 4.3305,11.0685 2.8844,2.9877 6.4362,4.4815 10.6395,4.4815 4.1875,0 7.7154,-1.4938 10.5759,-4.4815 2.8685,-2.9876 4.2987,-6.6745 4.2987,-11.0685 0,-4.3782 -1.454,-8.0651 -4.3622,-11.0607 -2.9162,-2.9955 -6.46,-4.4894 -10.6554,-4.4894 -4.2034,0 -7.7234,1.4859 -10.568,4.4656 -2.8367,2.9797 -4.259,6.6745 -4.259,11.0845zm-3.3054 0c0,-2.2169 0.3416,-4.3305 1.025,-6.3329 0.6833,-2.0023 1.6924,-3.8299 3.0273,-5.4906 1.7402,-2.1612 3.814,-3.814 6.2216,-4.9582 2.4156,-1.1521 5.0377,-1.7242 7.8585,-1.7242 2.1454,0 4.2033,0.3496 6.1898,1.0568 1.9865,0.7072 3.7981,1.7481 5.427,3.1068 2.1613,1.756 3.8061,3.8617 4.9344,6.3249 1.1362,2.4553 1.7004,5.133 1.7004,8.0174 0,2.2327 -0.3417,4.3543 -1.033,6.3646 -0.6912,2.0103 -1.7004,3.8299 -3.0194,5.4588 -1.764,2.1772 -3.8458,3.8299 -6.2375,4.9741 -2.3917,1.1362 -4.982,1.7083 -7.771,1.7083 -2.4871,0 -4.847,-0.4688 -7.0877,-1.3984 -2.2487,-0.9297 -4.2193,-2.2646 -5.9276,-4.0047 -1.7402,-1.7322 -3.0592,-3.7107 -3.957,-5.9356 -0.8979,-2.2169 -1.3508,-4.6086 -1.3508,-7.1671z"/>
  <polygon class="fil0" points="182.175,102.216 184.51,106.616 188.73,110.837 194.208,113.082 198.788,112.364 203.278,108.861 206.331,103.114 207.319,100.241 199.686,101.588 190.975,102.037 184.51,101.947 "/>
  <path class="fil5 str1" d="M207.159 100.472c-5.7709,19.1134 -19.4388,13.8511 -25.3227,1.5093 8.6092,0.5072 17.1622,0.6773 25.3227,-1.5093z"/>
  <line class="fil5 str1" x1="184.002" y1="94.6529" x2="189.536" y2= "92.2548" />
  <line class="fil5 str1" x1="197.969" y1="91.4163" x2="204.294" y2= "94.0995" />
  <path class="fil5 str1" d="M61.2576 102.719c5.7887,8.8725 19.2903,9.8358 25.2486,-0.7605"/>
  <ellipse class="fil3 str2" cx="70.9759" cy="95.2656" rx="1.23402" ry="1.6731"/>
  <ellipse class="fil3 str2" cx="80.0628" cy="95.2656" rx="1.23402" ry="1.6731"/>
  <polygon class="fil4 str3" points="113.988,74.802 116.229,78.5478 120.484,79.5218 117.614,82.8108 118.003,87.1585 113.988,85.4454 109.973,87.1585 110.362,82.8108 107.492,79.5218 111.747,78.5478 "/>
  <g>
   <path class="fil1" d="M185.786 88.6052l-1.5474 -0.8612 0 -11.504 2.0314 0 0 11.504 -0.484 0.8612zm0.484 -0.8612l-0.0013 0.0523 -0.0039 0.0516 -0.0065 0.0508 -0.0089 0.0501 -0.0114 0.0491 -0.0137 0.0482 -0.0159 0.0472 -0.0182 0.0462 -0.0204 0.045 -0.0224 0.0438 -0.0245 0.0425 -0.0264 0.0412 -0.0283 0.0399 -0.0302 0.0384 -0.0319 0.0368 -0.0336 0.0353 -0.0353 0.0337 -0.0368 0.0319 -0.0384 0.0302 -0.0398 0.0283 -0.0412 0.0264 -0.0426 0.0245 -0.0438 0.0224 -0.045 0.0204 -0.0461 0.0181 -0.0472 0.016 -0.0482 0.0137 -0.0491 0.0114 -0.05 0.0089 -0.0509 0.0065 -0.0515 0.0039 -0.0523 0.0013 -0.0523 -0.0013 -0.0515 -0.0039 -0.0509 -0.0065 -0.05 -0.0089 -0.0491 -0.0114 -0.0482 -0.0137 -0.0472 -0.016 -0.0461 -0.0181 -0.045 -0.0204 -0.0438 -0.0224 -0.0426 -0.0245 -0.0412 -0.0264 -0.0398 -0.0283 -0.0384 -0.0302 -0.0368 -0.0319 -0.0353 -0.0337 -0.0336 -0.0353 -0.0319 -0.0368 -0.0302 -0.0384 -0.0283 -0.0399 -0.0264 -0.0412 -0.0245 -0.0425 -0.0224 -0.0438 -0.0204 -0.045 -0.0182 -0.0462 -0.0159 -0.0472 -0.0137 -0.0482 -0.0114 -0.0491 -0.0089 -0.0501 -0.0065 -0.0508 -0.0039 -0.0516 -0.0013 -0.0523 2.0314 0zm8.7907 -6.6132l0 1.7224 -9.2747 5.752 -1.0634 -1.7224 9.2747 -5.752 1.0634 0zm-1.0634 0l0.045 -0.0262 0.0458 -0.0237 0.0464 -0.0212 0.0471 -0.0186 0.0476 -0.0161 0.048 -0.0136 0.0484 -0.0112 0.0486 -0.0087 0.0488 -0.0063 0.0489 -0.0039 0.0488 -0.0016 0.0488 0.0009 0.0486 0.0031 0.0483 0.0055 0.048 0.0078 0.0475 0.01 0.0469 0.0123 0.0464 0.0145 0.0456 0.0168 0.0449 0.0189 0.044 0.0211 0.043 0.0233 0.0419 0.0254 0.0408 0.0275 0.0396 0.0296 0.0382 0.0316 0.0368 0.0337 0.0354 0.0358 0.0337 0.0377 0.0321 0.0397 0.0303 0.0417 0.0285 0.0436 0.0262 0.045 0.0237 0.0458 0.0211 0.0465 0.0186 0.0471 0.0162 0.0476 0.0136 0.048 0.0111 0.0484 0.0088 0.0486 0.0063 0.0488 0.0039 0.0489 0.0015 0.0488 -0.0008 0.0488 -0.0032 0.0486 -0.0054 0.0483 -0.0078 0.048 -0.01 0.0475 -0.0123 0.047 -0.0146 0.0464 -0.0167 0.0456 -0.0189 0.0449 -0.0211 0.044 -0.0233 0.043 -0.0254 0.0419 -0.0275 0.0408 -0.0295 0.0396 -0.0317 0.0382 -0.0337 0.0369 -0.0357 0.0353 -0.0377 0.0338 -0.0397 0.0321 -0.0417 0.0303 -0.0436 0.0285 -1.0634 -1.7224zm-9.7587 -4.8908l1.5474 -0.8612 9.2747 5.752 -1.0634 1.7224 -9.2747 -5.752 -0.484 -0.8612zm0.484 0.8612l-0.0436 -0.0285 -0.0417 -0.0303 -0.0397 -0.0321 -0.0377 -0.0338 -0.0357 -0.0353 -0.0337 -0.0369 -0.0317 -0.0382 -0.0295 -0.0396 -0.0275 -0.0408 -0.0254 -0.0419 -0.0233 -0.043 -0.0211 -0.044 -0.0189 -0.0449 -0.0167 -0.0456 -0.0146 -0.0464 -0.0123 -0.047 -0.01 -0.0475 -0.0078 -0.048 -0.0054 -0.0483 -0.0032 -0.0486 -0.0008 -0.0488 0.0015 -0.0488 0.0039 -0.0489 0.0063 -0.0488 0.0088 -0.0486 0.0111 -0.0484 0.0136 -0.048 0.0162 -0.0476 0.0186 -0.0471 0.0211 -0.0465 0.0237 -0.0458 0.0262 -0.045 0.0285 -0.0436 0.0303 -0.0417 0.0321 -0.0397 0.0337 -0.0377 0.0354 -0.0358 0.0368 -0.0337 0.0382 -0.0316 0.0396 -0.0296 0.0408 -0.0275 0.0419 -0.0254 0.043 -0.0233 0.044 -0.0211 0.0449 -0.0189 0.0456 -0.0168 0.0464 -0.0145 0.0469 -0.0123 0.0475 -0.01 0.048 -0.0078 0.0483 -0.0055 0.0486 -0.0031 0.0488 -0.0009 0.0488 0.0016 0.0489 0.0039 0.0488 0.0063 0.0486 0.0087 0.0484 0.0112 0.048 0.0136 0.0476 0.0161 0.0471 0.0186 0.0464 0.0212 0.0458 0.0237 0.045 0.0262 -1.0634 1.7224z"/>
   <polygon class="fil2" points="185.254,76.24 185.254,87.744 194.529,81.992 "/>
  </g>
  <circle class="fil6 str4" cx="194.875" cy="81.6325" r="2.876"/>
  <g>
   <path class="fil1" d="M83.6178 124.196l-0.484 -0.8612 0 -11.504 2.0314 0 0 11.504 -1.5474 0.8612zm-0.484 -0.8612l2.0314 0 -0.0013 0.0523 -0.0039 0.0516 -0.0065 0.0508 -0.0089 0.0501 -0.0114 0.0491 -0.0137 0.0482 -0.0159 0.0472 -0.0182 0.0462 -0.0204 0.045 -0.0224 0.0438 -0.0245 0.0425 -0.0264 0.0412 -0.0283 0.0399 -0.0302 0.0384 -0.0319 0.0368 -0.0336 0.0353 -0.0353 0.0337 -0.0368 0.0319 -0.0384 0.0302 -0.0398 0.0283 -0.0412 0.0264 -0.0426 0.0245 -0.0438 0.0224 -0.045 0.0204 -0.0461 0.0181 -0.0472 0.016 -0.0482 0.0137 -0.0491 0.0114 -0.05 0.0089 -0.0509 0.0065 -0.0515 0.0039 -0.0523 0.0013 -0.0523 -0.0013 -0.0515 -0.0039 -0.0509 -0.0065 -0.05 -0.0089 -0.0491 -0.0114 -0.0482 -0.0137 -0.0472 -0.016 -0.0461 -0.0181 -0.045 -0.0204 -0.0438 -0.0224 -0.0426 -0.0245 -0.0412 -0.0264 -0.0398 -0.0283 -0.0384 -0.0302 -0.0368 -0.0319 -0.0353 -0.0337 -0.0336 -0.0353 -0.0319 -0.0368 -0.0302 -0.0384 -0.0283 -0.0399 -0.0264 -0.0412 -0.0245 -0.0425 -0.0224 -0.0438 -0.0204 -0.045 -0.0182 -0.0462 -0.0159 -0.0472 -0.0137 -0.0482 -0.0114 -0.0491 -0.0089 -0.0501 -0.0065 -0.0508 -0.0039 -0.0516 -0.0013 -0.0523zm-8.7907 -6.6132l1.0634 0 9.2747 5.752 -1.0634 1.7224 -9.2747 -5.752 0 -1.7224zm1.0634 0l-1.0634 1.7224 -0.0436 -0.0285 -0.0417 -0.0303 -0.0397 -0.0321 -0.0377 -0.0338 -0.0357 -0.0353 -0.0337 -0.0369 -0.0317 -0.0382 -0.0295 -0.0396 -0.0275 -0.0408 -0.0254 -0.0419 -0.0233 -0.043 -0.0211 -0.044 -0.0189 -0.0449 -0.0167 -0.0456 -0.0146 -0.0464 -0.0123 -0.047 -0.01 -0.0475 -0.0078 -0.048 -0.0054 -0.0483 -0.0032 -0.0486 -0.0008 -0.0488 0.0015 -0.0488 0.0039 -0.0489 0.0063 -0.0488 0.0088 -0.0486 0.0111 -0.0484 0.0136 -0.048 0.0162 -0.0476 0.0186 -0.0471 0.0211 -0.0465 0.0237 -0.0458 0.0262 -0.045 0.0285 -0.0436 0.0303 -0.0417 0.0321 -0.0397 0.0337 -0.0377 0.0354 -0.0358 0.0368 -0.0337 0.0382 -0.0316 0.0396 -0.0296 0.0408 -0.0275 0.0419 -0.0254 0.043 -0.0233 0.044 -0.0211 0.0449 -0.0189 0.0456 -0.0168 0.0464 -0.0145 0.0469 -0.0123 0.0475 -0.01 0.048 -0.0078 0.0483 -0.0055 0.0486 -0.0031 0.0488 -0.0009 0.0488 0.0016 0.0489 0.0039 0.0488 0.0063 0.0486 0.0087 0.0484 0.0112 0.048 0.0136 0.0476 0.0161 0.0471 0.0186 0.0464 0.0212 0.0458 0.0237 0.045 0.0262zm9.7587 -4.8908l-0.484 0.8612 -9.2747 5.752 -1.0634 -1.7224 9.2747 -5.752 1.5474 0.8612zm-0.484 0.8612l-1.0634 -1.7224 0.045 -0.0262 0.0458 -0.0237 0.0464 -0.0212 0.0471 -0.0186 0.0476 -0.0161 0.048 -0.0136 0.0484 -0.0112 0.0486 -0.0087 0.0488 -0.0063 0.0489 -0.0039 0.0488 -0.0016 0.0488 0.0009 0.0486 0.0031 0.0483 0.0055 0.048 0.0078 0.0475 0.01 0.0469 0.0123 0.0464 0.0145 0.0456 0.0168 0.0449 0.0189 0.044 0.0211 0.043 0.0233 0.0419 0.0254 0.0408 0.0275 0.0396 0.0296 0.0382 0.0316 0.0368 0.0337 0.0354 0.0358 0.0337 0.0377 0.0321 0.0397 0.0303 0.0417 0.0285 0.0436 0.0262 0.045 0.0237 0.0458 0.0211 0.0465 0.0186 0.0471 0.0162 0.0476 0.0136 0.048 0.0111 0.0484 0.0088 0.0486 0.0063 0.0488 0.0039 0.0489 0.0015 0.0488 -0.0008 0.0488 -0.0032 0.0486 -0.0054 0.0483 -0.0078 0.048 -0.01 0.0475 -0.0123 0.047 -0.0146 0.0464 -0.0167 0.0456 -0.0189 0.0449 -0.0211 0.044 -0.0233 0.043 -0.0254 0.0419 -0.0275 0.0408 -0.0295 0.0396 -0.0317 0.0382 -0.0337 0.0369 -0.0357 0.0353 -0.0377 0.0338 -0.0397 0.0321 -0.0417 0.0303 -0.0436 0.0285z"/>
   <polygon class="fil7" points="84.1495,111.831 84.1495,123.335 74.8748,117.583 "/>
  </g>
  <g>
   <path class="fil1" d="M64.9938 124.196l-1.5474 -0.8612 0 -11.504 2.0314 0 0 11.504 -0.484 0.8612zm0.484 -0.8612l-0.0013 0.0523 -0.0039 0.0516 -0.0065 0.0508 -0.0089 0.0501 -0.0114 0.0491 -0.0137 0.0482 -0.0159 0.0472 -0.0182 0.0462 -0.0204 0.045 -0.0224 0.0438 -0.0245 0.0425 -0.0264 0.0412 -0.0283 0.0399 -0.0302 0.0384 -0.0319 0.0368 -0.0336 0.0353 -0.0353 0.0337 -0.0368 0.0319 -0.0384 0.0302 -0.0398 0.0283 -0.0412 0.0264 -0.0426 0.0245 -0.0438 0.0224 -0.045 0.0204 -0.0461 0.0181 -0.0472 0.016 -0.0482 0.0137 -0.0491 0.0114 -0.05 0.0089 -0.0509 0.0065 -0.0515 0.0039 -0.0523 0.0013 -0.0523 -0.0013 -0.0515 -0.0039 -0.0509 -0.0065 -0.05 -0.0089 -0.0491 -0.0114 -0.0482 -0.0137 -0.0472 -0.016 -0.0461 -0.0181 -0.045 -0.0204 -0.0438 -0.0224 -0.0426 -0.0245 -0.0412 -0.0264 -0.0398 -0.0283 -0.0384 -0.0302 -0.0368 -0.0319 -0.0353 -0.0337 -0.0336 -0.0353 -0.0319 -0.0368 -0.0302 -0.0384 -0.0283 -0.0399 -0.0264 -0.0412 -0.0245 -0.0425 -0.0224 -0.0438 -0.0204 -0.045 -0.0182 -0.0462 -0.0159 -0.0472 -0.0137 -0.0482 -0.0114 -0.0491 -0.0089 -0.0501 -0.0065 -0.0508 -0.0039 -0.0516 -0.0013 -0.0523 2.0314 0zm8.7907 -6.6132l0 1.7224 -9.2747 5.752 -1.0634 -1.7224 9.2747 -5.752 1.0634 0zm-1.0634 0l0.045 -0.0262 0.0458 -0.0237 0.0464 -0.0212 0.0471 -0.0186 0.0476 -0.0161 0.048 -0.0136 0.0484 -0.0112 0.0486 -0.0087 0.0488 -0.0063 0.0489 -0.0039 0.0488 -0.0016 0.0488 0.0009 0.0486 0.0031 0.0483 0.0055 0.048 0.0078 0.0475 0.01 0.0469 0.0123 0.0464 0.0145 0.0456 0.0168 0.0449 0.0189 0.044 0.0211 0.043 0.0233 0.0419 0.0254 0.0408 0.0275 0.0396 0.0296 0.0382 0.0316 0.0368 0.0337 0.0354 0.0358 0.0337 0.0377 0.0321 0.0397 0.0303 0.0417 0.0285 0.0436 0.0262 0.045 0.0237 0.0458 0.0211 0.0465 0.0186 0.0471 0.0162 0.0476 0.0136 0.048 0.0111 0.0484 0.0088 0.0486 0.0063 0.0488 0.0039 0.0489 0.0015 0.0488 -0.0008 0.0488 -0.0032 0.0486 -0.0054 0.0483 -0.0078 0.048 -0.01 0.0475 -0.0123 0.047 -0.0146 0.0464 -0.0167 0.0456 -0.0189 0.0449 -0.0211 0.044 -0.0233 0.043 -0.0254 0.0419 -0.0275 0.0408 -0.0295 0.0396 -0.0317 0.0382 -0.0337 0.0369 -0.0357 0.0353 -0.0377 0.0338 -0.0397 0.0321 -0.0417 0.0303 -0.0436 0.0285 -1.0634 -1.7224zm-9.7587 -4.8908l1.5474 -0.8612 9.2747 5.752 -1.0634 1.7224 -9.2747 -5.752 -0.484 -0.8612zm0.484 0.8612l-0.0436 -0.0285 -0.0417 -0.0303 -0.0397 -0.0321 -0.0377 -0.0338 -0.0357 -0.0353 -0.0337 -0.0369 -0.0317 -0.0382 -0.0295 -0.0396 -0.0275 -0.0408 -0.0254 -0.0419 -0.0233 -0.043 -0.0211 -0.044 -0.0189 -0.0449 -0.0167 -0.0456 -0.0146 -0.0464 -0.0123 -0.047 -0.01 -0.0475 -0.0078 -0.048 -0.0054 -0.0483 -0.0032 -0.0486 -0.0008 -0.0488 0.0015 -0.0488 0.0039 -0.0489 0.0063 -0.0488 0.0088 -0.0486 0.0111 -0.0484 0.0136 -0.048 0.0162 -0.0476 0.0186 -0.0471 0.0211 -0.0465 0.0237 -0.0458 0.0262 -0.045 0.0285 -0.0436 0.0303 -0.0417 0.0321 -0.0397 0.0337 -0.0377 0.0354 -0.0358 0.0368 -0.0337 0.0382 -0.0316 0.0396 -0.0296 0.0408 -0.0275 0.0419 -0.0254 0.043 -0.0233 0.044 -0.0211 0.0449 -0.0189 0.0456 -0.0168 0.0464 -0.0145 0.0469 -0.0123 0.0475 -0.01 0.048 -0.0078 0.0483 -0.0055 0.0486 -0.0031 0.0488 -0.0009 0.0488 0.0016 0.0489 0.0039 0.0488 0.0063 0.0486 0.0087 0.0484 0.0112 0.048 0.0136 0.0476 0.0161 0.0471 0.0186 0.0464 0.0212 0.0458 0.0237 0.045 0.0262 -1.0634 1.7224z"/>
   <polygon class="fil7" points="64.4621,111.831 64.4621,123.335 73.7368,117.583 "/>
  </g>
  <circle class="fil8 str4" cx="74.0835" cy="117.223" r="2.876"/>
 </g>
</svg>
